<?xml version="1.0" encoding="UTF-8" standalone="no"?>
<!DOCTYPE svg PUBLIC "-//W3C//DTD SVG 1.1//EN"
 "http://www.w3.org/Graphics/SVG/1.1/DTD/svg11.dtd">
<!-- Generated by graphviz version 2.43.0 (0)
 -->
<!-- Pages: 1 -->
<svg width="592pt" height="3140pt"
 viewBox="0.00 0.00 592.00 3140.00" xmlns="http://www.w3.org/2000/svg" xmlns:xlink="http://www.w3.org/1999/xlink">
<g id="graph0" class="graph" transform="scale(1 1) rotate(0) translate(4 3136)">
<polygon fill="white" stroke="transparent" points="-4,4 -4,-3136 588,-3136 588,4 -4,4"/>
<!-- 3 -->
<g id="node1" class="node">
<title>3</title>
<ellipse fill="none" stroke="black" cx="322" cy="-162" rx="27" ry="18"/>
<text text-anchor="middle" x="322" y="-158.3" font-family="Times,serif" font-size="14.00">3</text>
</g>
<!-- 5 -->
<g id="node2" class="node">
<title>5</title>
<ellipse fill="none" stroke="black" cx="393" cy="-90" rx="27" ry="18"/>
<text text-anchor="middle" x="393" y="-86.3" font-family="Times,serif" font-size="14.00">5</text>
</g>
<!-- 3&#45;&gt;5 -->
<g id="edge1" class="edge">
<title>3&#45;&gt;5</title>
<path fill="none" stroke="black" d="M336.71,-146.5C346.61,-136.73 359.84,-123.69 370.99,-112.7"/>
<polygon fill="black" stroke="black" points="373.64,-115 378.31,-105.49 368.73,-110.01 373.64,-115"/>
</g>
<!-- 1 -->
<g id="node3" class="node">
<title>1</title>
<ellipse fill="none" stroke="black" cx="321" cy="-18" rx="27" ry="18"/>
<text text-anchor="middle" x="321" y="-14.3" font-family="Times,serif" font-size="14.00">1</text>
</g>
<!-- 5&#45;&gt;1 -->
<g id="edge2" class="edge">
<title>5&#45;&gt;1</title>
<path fill="none" stroke="black" d="M378.43,-74.83C368.25,-64.94 354.48,-51.55 342.97,-40.36"/>
<polygon fill="black" stroke="black" points="345.41,-37.85 335.8,-33.38 340.53,-42.87 345.41,-37.85"/>
</g>
<!-- 7 -->
<g id="node4" class="node">
<title>7</title>
<ellipse fill="none" stroke="black" cx="138" cy="-378" rx="27" ry="18"/>
<text text-anchor="middle" x="138" y="-374.3" font-family="Times,serif" font-size="14.00">7</text>
</g>
<!-- 11 -->
<g id="node5" class="node">
<title>11</title>
<ellipse fill="none" stroke="black" cx="286" cy="-306" rx="27" ry="18"/>
<text text-anchor="middle" x="286" y="-302.3" font-family="Times,serif" font-size="14.00">11</text>
</g>
<!-- 7&#45;&gt;11 -->
<g id="edge3" class="edge">
<title>7&#45;&gt;11</title>
<path fill="none" stroke="black" d="M159.52,-366.82C184.73,-354.9 226.68,-335.06 255.3,-321.52"/>
<polygon fill="black" stroke="black" points="256.91,-324.63 264.45,-317.19 253.92,-318.3 256.91,-324.63"/>
</g>
<!-- 17 -->
<g id="node6" class="node">
<title>17</title>
<ellipse fill="none" stroke="black" cx="322" cy="-234" rx="27" ry="18"/>
<text text-anchor="middle" x="322" y="-230.3" font-family="Times,serif" font-size="14.00">17</text>
</g>
<!-- 11&#45;&gt;17 -->
<g id="edge4" class="edge">
<title>11&#45;&gt;17</title>
<path fill="none" stroke="black" d="M294.35,-288.76C298.71,-280.28 304.15,-269.71 309.04,-260.2"/>
<polygon fill="black" stroke="black" points="312.23,-261.64 313.7,-251.15 306.01,-258.44 312.23,-261.64"/>
</g>
<!-- 13 -->
<g id="node7" class="node">
<title>13</title>
<ellipse fill="none" stroke="black" cx="394" cy="-162" rx="27" ry="18"/>
<text text-anchor="middle" x="394" y="-158.3" font-family="Times,serif" font-size="14.00">13</text>
</g>
<!-- 17&#45;&gt;13 -->
<g id="edge5" class="edge">
<title>17&#45;&gt;13</title>
<path fill="none" stroke="black" d="M336.57,-218.83C346.75,-208.94 360.52,-195.55 372.03,-184.36"/>
<polygon fill="black" stroke="black" points="374.47,-186.87 379.2,-177.38 369.59,-181.85 374.47,-186.87"/>
</g>
<!-- 13&#45;&gt;5 -->
<g id="edge6" class="edge">
<title>13&#45;&gt;5</title>
<path fill="none" stroke="black" d="M393.75,-143.7C393.64,-135.98 393.51,-126.71 393.39,-118.11"/>
<polygon fill="black" stroke="black" points="396.89,-118.05 393.24,-108.1 389.89,-118.15 396.89,-118.05"/>
</g>
<!-- 9 -->
<g id="node8" class="node">
<title>9</title>
<ellipse fill="none" stroke="black" cx="29" cy="-450" rx="27" ry="18"/>
<text text-anchor="middle" x="29" y="-446.3" font-family="Times,serif" font-size="14.00">9</text>
</g>
<!-- 9&#45;&gt;7 -->
<g id="edge7" class="edge">
<title>9&#45;&gt;7</title>
<path fill="none" stroke="black" d="M47.99,-436.81C65.34,-425.67 91.19,-409.06 110.74,-396.5"/>
<polygon fill="black" stroke="black" points="112.71,-399.4 119.23,-391.05 108.93,-393.51 112.71,-399.4"/>
</g>
<!-- 15 -->
<g id="node9" class="node">
<title>15</title>
<ellipse fill="none" stroke="black" cx="414" cy="-378" rx="27" ry="18"/>
<text text-anchor="middle" x="414" y="-374.3" font-family="Times,serif" font-size="14.00">15</text>
</g>
<!-- 23 -->
<g id="node10" class="node">
<title>23</title>
<ellipse fill="none" stroke="black" cx="430" cy="-306" rx="27" ry="18"/>
<text text-anchor="middle" x="430" y="-302.3" font-family="Times,serif" font-size="14.00">23</text>
</g>
<!-- 15&#45;&gt;23 -->
<g id="edge8" class="edge">
<title>15&#45;&gt;23</title>
<path fill="none" stroke="black" d="M417.87,-360.05C419.65,-352.26 421.81,-342.82 423.81,-334.08"/>
<polygon fill="black" stroke="black" points="427.24,-334.8 426.05,-324.28 420.41,-333.24 427.24,-334.8"/>
</g>
<!-- 35 -->
<g id="node11" class="node">
<title>35</title>
<ellipse fill="none" stroke="black" cx="466" cy="-234" rx="27" ry="18"/>
<text text-anchor="middle" x="466" y="-230.3" font-family="Times,serif" font-size="14.00">35</text>
</g>
<!-- 23&#45;&gt;35 -->
<g id="edge9" class="edge">
<title>23&#45;&gt;35</title>
<path fill="none" stroke="black" d="M438.35,-288.76C442.71,-280.28 448.15,-269.71 453.04,-260.2"/>
<polygon fill="black" stroke="black" points="456.23,-261.64 457.7,-251.15 450.01,-258.44 456.23,-261.64"/>
</g>
<!-- 53 -->
<g id="node12" class="node">
<title>53</title>
<ellipse fill="none" stroke="black" cx="466" cy="-162" rx="27" ry="18"/>
<text text-anchor="middle" x="466" y="-158.3" font-family="Times,serif" font-size="14.00">53</text>
</g>
<!-- 35&#45;&gt;53 -->
<g id="edge10" class="edge">
<title>35&#45;&gt;53</title>
<path fill="none" stroke="black" d="M466,-215.7C466,-207.98 466,-198.71 466,-190.11"/>
<polygon fill="black" stroke="black" points="469.5,-190.1 466,-180.1 462.5,-190.1 469.5,-190.1"/>
</g>
<!-- 53&#45;&gt;5 -->
<g id="edge11" class="edge">
<title>53&#45;&gt;5</title>
<path fill="none" stroke="black" d="M451.23,-146.83C440.84,-136.87 426.76,-123.37 415.04,-112.14"/>
<polygon fill="black" stroke="black" points="417.39,-109.54 407.75,-105.14 412.55,-114.59 417.39,-109.54"/>
</g>
<!-- 19 -->
<g id="node13" class="node">
<title>19</title>
<ellipse fill="none" stroke="black" cx="290" cy="-450" rx="27" ry="18"/>
<text text-anchor="middle" x="290" y="-446.3" font-family="Times,serif" font-size="14.00">19</text>
</g>
<!-- 29 -->
<g id="node14" class="node">
<title>29</title>
<ellipse fill="none" stroke="black" cx="290" cy="-378" rx="27" ry="18"/>
<text text-anchor="middle" x="290" y="-374.3" font-family="Times,serif" font-size="14.00">29</text>
</g>
<!-- 19&#45;&gt;29 -->
<g id="edge12" class="edge">
<title>19&#45;&gt;29</title>
<path fill="none" stroke="black" d="M290,-431.7C290,-423.98 290,-414.71 290,-406.11"/>
<polygon fill="black" stroke="black" points="293.5,-406.1 290,-396.1 286.5,-406.1 293.5,-406.1"/>
</g>
<!-- 29&#45;&gt;11 -->
<g id="edge13" class="edge">
<title>29&#45;&gt;11</title>
<path fill="none" stroke="black" d="M289.01,-359.7C288.57,-351.98 288.04,-342.71 287.55,-334.11"/>
<polygon fill="black" stroke="black" points="291.04,-333.89 286.98,-324.1 284.05,-334.29 291.04,-333.89"/>
</g>
<!-- 21 -->
<g id="node15" class="node">
<title>21</title>
<ellipse fill="none" stroke="black" cx="321" cy="-90" rx="27" ry="18"/>
<text text-anchor="middle" x="321" y="-86.3" font-family="Times,serif" font-size="14.00">21</text>
</g>
<!-- 21&#45;&gt;1 -->
<g id="edge14" class="edge">
<title>21&#45;&gt;1</title>
<path fill="none" stroke="black" d="M321,-71.7C321,-63.98 321,-54.71 321,-46.11"/>
<polygon fill="black" stroke="black" points="324.5,-46.1 321,-36.1 317.5,-46.1 324.5,-46.1"/>
</g>
<!-- 25 -->
<g id="node16" class="node">
<title>25</title>
<ellipse fill="none" stroke="black" cx="247" cy="-522" rx="27" ry="18"/>
<text text-anchor="middle" x="247" y="-518.3" font-family="Times,serif" font-size="14.00">25</text>
</g>
<!-- 25&#45;&gt;19 -->
<g id="edge15" class="edge">
<title>25&#45;&gt;19</title>
<path fill="none" stroke="black" d="M256.76,-505.12C262.15,-496.34 268.95,-485.26 275,-475.42"/>
<polygon fill="black" stroke="black" points="278.03,-477.17 280.28,-466.82 272.06,-473.51 278.03,-477.17"/>
</g>
<!-- 27 -->
<g id="node17" class="node">
<title>27</title>
<ellipse fill="none" stroke="black" cx="373" cy="-2970" rx="27" ry="18"/>
<text text-anchor="middle" x="373" y="-2966.3" font-family="Times,serif" font-size="14.00">27</text>
</g>
<!-- 41 -->
<g id="node18" class="node">
<title>41</title>
<ellipse fill="none" stroke="black" cx="373" cy="-2898" rx="27" ry="18"/>
<text text-anchor="middle" x="373" y="-2894.3" font-family="Times,serif" font-size="14.00">41</text>
</g>
<!-- 27&#45;&gt;41 -->
<g id="edge16" class="edge">
<title>27&#45;&gt;41</title>
<path fill="none" stroke="black" d="M373,-2951.7C373,-2943.98 373,-2934.71 373,-2926.11"/>
<polygon fill="black" stroke="black" points="376.5,-2926.1 373,-2916.1 369.5,-2926.1 376.5,-2926.1"/>
</g>
<!-- 31 -->
<g id="node19" class="node">
<title>31</title>
<ellipse fill="none" stroke="black" cx="373" cy="-2826" rx="27" ry="18"/>
<text text-anchor="middle" x="373" y="-2822.3" font-family="Times,serif" font-size="14.00">31</text>
</g>
<!-- 41&#45;&gt;31 -->
<g id="edge17" class="edge">
<title>41&#45;&gt;31</title>
<path fill="none" stroke="black" d="M373,-2879.7C373,-2871.98 373,-2862.71 373,-2854.11"/>
<polygon fill="black" stroke="black" points="376.5,-2854.1 373,-2844.1 369.5,-2854.1 376.5,-2854.1"/>
</g>
<!-- 47 -->
<g id="node20" class="node">
<title>47</title>
<ellipse fill="none" stroke="black" cx="446" cy="-2754" rx="27" ry="18"/>
<text text-anchor="middle" x="446" y="-2750.3" font-family="Times,serif" font-size="14.00">47</text>
</g>
<!-- 31&#45;&gt;47 -->
<g id="edge18" class="edge">
<title>31&#45;&gt;47</title>
<path fill="none" stroke="black" d="M387.77,-2810.83C398.16,-2800.87 412.24,-2787.37 423.96,-2776.14"/>
<polygon fill="black" stroke="black" points="426.45,-2778.59 431.25,-2769.14 421.61,-2773.54 426.45,-2778.59"/>
</g>
<!-- 71 -->
<g id="node21" class="node">
<title>71</title>
<ellipse fill="none" stroke="black" cx="446" cy="-2682" rx="27" ry="18"/>
<text text-anchor="middle" x="446" y="-2678.3" font-family="Times,serif" font-size="14.00">71</text>
</g>
<!-- 47&#45;&gt;71 -->
<g id="edge19" class="edge">
<title>47&#45;&gt;71</title>
<path fill="none" stroke="black" d="M446,-2735.7C446,-2727.98 446,-2718.71 446,-2710.11"/>
<polygon fill="black" stroke="black" points="449.5,-2710.1 446,-2700.1 442.5,-2710.1 449.5,-2710.1"/>
</g>
<!-- 107 -->
<g id="node22" class="node">
<title>107</title>
<ellipse fill="none" stroke="black" cx="446" cy="-2610" rx="28.7" ry="18"/>
<text text-anchor="middle" x="446" y="-2606.3" font-family="Times,serif" font-size="14.00">107</text>
</g>
<!-- 71&#45;&gt;107 -->
<g id="edge20" class="edge">
<title>71&#45;&gt;107</title>
<path fill="none" stroke="black" d="M446,-2663.7C446,-2655.98 446,-2646.71 446,-2638.11"/>
<polygon fill="black" stroke="black" points="449.5,-2638.1 446,-2628.1 442.5,-2638.1 449.5,-2638.1"/>
</g>
<!-- 161 -->
<g id="node23" class="node">
<title>161</title>
<ellipse fill="none" stroke="black" cx="446" cy="-2538" rx="28.7" ry="18"/>
<text text-anchor="middle" x="446" y="-2534.3" font-family="Times,serif" font-size="14.00">161</text>
</g>
<!-- 107&#45;&gt;161 -->
<g id="edge21" class="edge">
<title>107&#45;&gt;161</title>
<path fill="none" stroke="black" d="M446,-2591.7C446,-2583.98 446,-2574.71 446,-2566.11"/>
<polygon fill="black" stroke="black" points="449.5,-2566.1 446,-2556.1 442.5,-2566.1 449.5,-2566.1"/>
</g>
<!-- 121 -->
<g id="node24" class="node">
<title>121</title>
<ellipse fill="none" stroke="black" cx="446" cy="-2466" rx="28.7" ry="18"/>
<text text-anchor="middle" x="446" y="-2462.3" font-family="Times,serif" font-size="14.00">121</text>
</g>
<!-- 161&#45;&gt;121 -->
<g id="edge22" class="edge">
<title>161&#45;&gt;121</title>
<path fill="none" stroke="black" d="M446,-2519.7C446,-2511.98 446,-2502.71 446,-2494.11"/>
<polygon fill="black" stroke="black" points="449.5,-2494.1 446,-2484.1 442.5,-2494.1 449.5,-2494.1"/>
</g>
<!-- 91 -->
<g id="node25" class="node">
<title>91</title>
<ellipse fill="none" stroke="black" cx="483" cy="-2394" rx="27" ry="18"/>
<text text-anchor="middle" x="483" y="-2390.3" font-family="Times,serif" font-size="14.00">91</text>
</g>
<!-- 121&#45;&gt;91 -->
<g id="edge23" class="edge">
<title>121&#45;&gt;91</title>
<path fill="none" stroke="black" d="M454.58,-2448.76C459.06,-2440.28 464.65,-2429.71 469.68,-2420.2"/>
<polygon fill="black" stroke="black" points="472.89,-2421.62 474.46,-2411.15 466.7,-2418.35 472.89,-2421.62"/>
</g>
<!-- 137 -->
<g id="node26" class="node">
<title>137</title>
<ellipse fill="none" stroke="black" cx="483" cy="-2322" rx="28.7" ry="18"/>
<text text-anchor="middle" x="483" y="-2318.3" font-family="Times,serif" font-size="14.00">137</text>
</g>
<!-- 91&#45;&gt;137 -->
<g id="edge24" class="edge">
<title>91&#45;&gt;137</title>
<path fill="none" stroke="black" d="M483,-2375.7C483,-2367.98 483,-2358.71 483,-2350.11"/>
<polygon fill="black" stroke="black" points="486.5,-2350.1 483,-2340.1 479.5,-2350.1 486.5,-2350.1"/>
</g>
<!-- 103 -->
<g id="node27" class="node">
<title>103</title>
<ellipse fill="none" stroke="black" cx="483" cy="-2250" rx="28.7" ry="18"/>
<text text-anchor="middle" x="483" y="-2246.3" font-family="Times,serif" font-size="14.00">103</text>
</g>
<!-- 137&#45;&gt;103 -->
<g id="edge25" class="edge">
<title>137&#45;&gt;103</title>
<path fill="none" stroke="black" d="M483,-2303.7C483,-2295.98 483,-2286.71 483,-2278.11"/>
<polygon fill="black" stroke="black" points="486.5,-2278.1 483,-2268.1 479.5,-2278.1 486.5,-2278.1"/>
</g>
<!-- 155 -->
<g id="node28" class="node">
<title>155</title>
<ellipse fill="none" stroke="black" cx="483" cy="-2178" rx="28.7" ry="18"/>
<text text-anchor="middle" x="483" y="-2174.3" font-family="Times,serif" font-size="14.00">155</text>
</g>
<!-- 103&#45;&gt;155 -->
<g id="edge26" class="edge">
<title>103&#45;&gt;155</title>
<path fill="none" stroke="black" d="M483,-2231.7C483,-2223.98 483,-2214.71 483,-2206.11"/>
<polygon fill="black" stroke="black" points="486.5,-2206.1 483,-2196.1 479.5,-2206.1 486.5,-2206.1"/>
</g>
<!-- 233 -->
<g id="node29" class="node">
<title>233</title>
<ellipse fill="none" stroke="black" cx="483" cy="-2106" rx="28.7" ry="18"/>
<text text-anchor="middle" x="483" y="-2102.3" font-family="Times,serif" font-size="14.00">233</text>
</g>
<!-- 155&#45;&gt;233 -->
<g id="edge27" class="edge">
<title>155&#45;&gt;233</title>
<path fill="none" stroke="black" d="M483,-2159.7C483,-2151.98 483,-2142.71 483,-2134.11"/>
<polygon fill="black" stroke="black" points="486.5,-2134.1 483,-2124.1 479.5,-2134.1 486.5,-2134.1"/>
</g>
<!-- 175 -->
<g id="node30" class="node">
<title>175</title>
<ellipse fill="none" stroke="black" cx="483" cy="-2034" rx="28.7" ry="18"/>
<text text-anchor="middle" x="483" y="-2030.3" font-family="Times,serif" font-size="14.00">175</text>
</g>
<!-- 233&#45;&gt;175 -->
<g id="edge28" class="edge">
<title>233&#45;&gt;175</title>
<path fill="none" stroke="black" d="M483,-2087.7C483,-2079.98 483,-2070.71 483,-2062.11"/>
<polygon fill="black" stroke="black" points="486.5,-2062.1 483,-2052.1 479.5,-2062.1 486.5,-2062.1"/>
</g>
<!-- 263 -->
<g id="node31" class="node">
<title>263</title>
<ellipse fill="none" stroke="black" cx="483" cy="-1962" rx="28.7" ry="18"/>
<text text-anchor="middle" x="483" y="-1958.3" font-family="Times,serif" font-size="14.00">263</text>
</g>
<!-- 175&#45;&gt;263 -->
<g id="edge29" class="edge">
<title>175&#45;&gt;263</title>
<path fill="none" stroke="black" d="M483,-2015.7C483,-2007.98 483,-1998.71 483,-1990.11"/>
<polygon fill="black" stroke="black" points="486.5,-1990.1 483,-1980.1 479.5,-1990.1 486.5,-1990.1"/>
</g>
<!-- 395 -->
<g id="node32" class="node">
<title>395</title>
<ellipse fill="none" stroke="black" cx="483" cy="-1890" rx="28.7" ry="18"/>
<text text-anchor="middle" x="483" y="-1886.3" font-family="Times,serif" font-size="14.00">395</text>
</g>
<!-- 263&#45;&gt;395 -->
<g id="edge30" class="edge">
<title>263&#45;&gt;395</title>
<path fill="none" stroke="black" d="M483,-1943.7C483,-1935.98 483,-1926.71 483,-1918.11"/>
<polygon fill="black" stroke="black" points="486.5,-1918.1 483,-1908.1 479.5,-1918.1 486.5,-1918.1"/>
</g>
<!-- 593 -->
<g id="node33" class="node">
<title>593</title>
<ellipse fill="none" stroke="black" cx="483" cy="-1818" rx="28.7" ry="18"/>
<text text-anchor="middle" x="483" y="-1814.3" font-family="Times,serif" font-size="14.00">593</text>
</g>
<!-- 395&#45;&gt;593 -->
<g id="edge31" class="edge">
<title>395&#45;&gt;593</title>
<path fill="none" stroke="black" d="M483,-1871.7C483,-1863.98 483,-1854.71 483,-1846.11"/>
<polygon fill="black" stroke="black" points="486.5,-1846.1 483,-1836.1 479.5,-1846.1 486.5,-1846.1"/>
</g>
<!-- 445 -->
<g id="node34" class="node">
<title>445</title>
<ellipse fill="none" stroke="black" cx="483" cy="-1746" rx="28.7" ry="18"/>
<text text-anchor="middle" x="483" y="-1742.3" font-family="Times,serif" font-size="14.00">445</text>
</g>
<!-- 593&#45;&gt;445 -->
<g id="edge32" class="edge">
<title>593&#45;&gt;445</title>
<path fill="none" stroke="black" d="M483,-1799.7C483,-1791.98 483,-1782.71 483,-1774.11"/>
<polygon fill="black" stroke="black" points="486.5,-1774.1 483,-1764.1 479.5,-1774.1 486.5,-1774.1"/>
</g>
<!-- 167 -->
<g id="node35" class="node">
<title>167</title>
<ellipse fill="none" stroke="black" cx="483" cy="-1674" rx="28.7" ry="18"/>
<text text-anchor="middle" x="483" y="-1670.3" font-family="Times,serif" font-size="14.00">167</text>
</g>
<!-- 445&#45;&gt;167 -->
<g id="edge33" class="edge">
<title>445&#45;&gt;167</title>
<path fill="none" stroke="black" d="M483,-1727.7C483,-1719.98 483,-1710.71 483,-1702.11"/>
<polygon fill="black" stroke="black" points="486.5,-1702.1 483,-1692.1 479.5,-1702.1 486.5,-1702.1"/>
</g>
<!-- 251 -->
<g id="node36" class="node">
<title>251</title>
<ellipse fill="none" stroke="black" cx="483" cy="-1602" rx="28.7" ry="18"/>
<text text-anchor="middle" x="483" y="-1598.3" font-family="Times,serif" font-size="14.00">251</text>
</g>
<!-- 167&#45;&gt;251 -->
<g id="edge34" class="edge">
<title>167&#45;&gt;251</title>
<path fill="none" stroke="black" d="M483,-1655.7C483,-1647.98 483,-1638.71 483,-1630.11"/>
<polygon fill="black" stroke="black" points="486.5,-1630.1 483,-1620.1 479.5,-1630.1 486.5,-1630.1"/>
</g>
<!-- 377 -->
<g id="node37" class="node">
<title>377</title>
<ellipse fill="none" stroke="black" cx="483" cy="-1530" rx="28.7" ry="18"/>
<text text-anchor="middle" x="483" y="-1526.3" font-family="Times,serif" font-size="14.00">377</text>
</g>
<!-- 251&#45;&gt;377 -->
<g id="edge35" class="edge">
<title>251&#45;&gt;377</title>
<path fill="none" stroke="black" d="M483,-1583.7C483,-1575.98 483,-1566.71 483,-1558.11"/>
<polygon fill="black" stroke="black" points="486.5,-1558.1 483,-1548.1 479.5,-1558.1 486.5,-1558.1"/>
</g>
<!-- 283 -->
<g id="node38" class="node">
<title>283</title>
<ellipse fill="none" stroke="black" cx="483" cy="-1458" rx="28.7" ry="18"/>
<text text-anchor="middle" x="483" y="-1454.3" font-family="Times,serif" font-size="14.00">283</text>
</g>
<!-- 377&#45;&gt;283 -->
<g id="edge36" class="edge">
<title>377&#45;&gt;283</title>
<path fill="none" stroke="black" d="M483,-1511.7C483,-1503.98 483,-1494.71 483,-1486.11"/>
<polygon fill="black" stroke="black" points="486.5,-1486.1 483,-1476.1 479.5,-1486.1 486.5,-1486.1"/>
</g>
<!-- 425 -->
<g id="node39" class="node">
<title>425</title>
<ellipse fill="none" stroke="black" cx="483" cy="-1386" rx="28.7" ry="18"/>
<text text-anchor="middle" x="483" y="-1382.3" font-family="Times,serif" font-size="14.00">425</text>
</g>
<!-- 283&#45;&gt;425 -->
<g id="edge37" class="edge">
<title>283&#45;&gt;425</title>
<path fill="none" stroke="black" d="M483,-1439.7C483,-1431.98 483,-1422.71 483,-1414.11"/>
<polygon fill="black" stroke="black" points="486.5,-1414.1 483,-1404.1 479.5,-1414.1 486.5,-1414.1"/>
</g>
<!-- 319 -->
<g id="node40" class="node">
<title>319</title>
<ellipse fill="none" stroke="black" cx="483" cy="-1314" rx="28.7" ry="18"/>
<text text-anchor="middle" x="483" y="-1310.3" font-family="Times,serif" font-size="14.00">319</text>
</g>
<!-- 425&#45;&gt;319 -->
<g id="edge38" class="edge">
<title>425&#45;&gt;319</title>
<path fill="none" stroke="black" d="M483,-1367.7C483,-1359.98 483,-1350.71 483,-1342.11"/>
<polygon fill="black" stroke="black" points="486.5,-1342.1 483,-1332.1 479.5,-1342.1 486.5,-1342.1"/>
</g>
<!-- 479 -->
<g id="node41" class="node">
<title>479</title>
<ellipse fill="none" stroke="black" cx="483" cy="-1242" rx="28.7" ry="18"/>
<text text-anchor="middle" x="483" y="-1238.3" font-family="Times,serif" font-size="14.00">479</text>
</g>
<!-- 319&#45;&gt;479 -->
<g id="edge39" class="edge">
<title>319&#45;&gt;479</title>
<path fill="none" stroke="black" d="M483,-1295.7C483,-1287.98 483,-1278.71 483,-1270.11"/>
<polygon fill="black" stroke="black" points="486.5,-1270.1 483,-1260.1 479.5,-1270.1 486.5,-1270.1"/>
</g>
<!-- 719 -->
<g id="node42" class="node">
<title>719</title>
<ellipse fill="none" stroke="black" cx="483" cy="-1170" rx="28.7" ry="18"/>
<text text-anchor="middle" x="483" y="-1166.3" font-family="Times,serif" font-size="14.00">719</text>
</g>
<!-- 479&#45;&gt;719 -->
<g id="edge40" class="edge">
<title>479&#45;&gt;719</title>
<path fill="none" stroke="black" d="M483,-1223.7C483,-1215.98 483,-1206.71 483,-1198.11"/>
<polygon fill="black" stroke="black" points="486.5,-1198.1 483,-1188.1 479.5,-1198.1 486.5,-1198.1"/>
</g>
<!-- 1079 -->
<g id="node43" class="node">
<title>1079</title>
<ellipse fill="none" stroke="black" cx="483" cy="-1098" rx="34.39" ry="18"/>
<text text-anchor="middle" x="483" y="-1094.3" font-family="Times,serif" font-size="14.00">1079</text>
</g>
<!-- 719&#45;&gt;1079 -->
<g id="edge41" class="edge">
<title>719&#45;&gt;1079</title>
<path fill="none" stroke="black" d="M483,-1151.7C483,-1143.98 483,-1134.71 483,-1126.11"/>
<polygon fill="black" stroke="black" points="486.5,-1126.1 483,-1116.1 479.5,-1126.1 486.5,-1126.1"/>
</g>
<!-- 1619 -->
<g id="node44" class="node">
<title>1619</title>
<ellipse fill="none" stroke="black" cx="483" cy="-1026" rx="34.39" ry="18"/>
<text text-anchor="middle" x="483" y="-1022.3" font-family="Times,serif" font-size="14.00">1619</text>
</g>
<!-- 1079&#45;&gt;1619 -->
<g id="edge42" class="edge">
<title>1079&#45;&gt;1619</title>
<path fill="none" stroke="black" d="M483,-1079.7C483,-1071.98 483,-1062.71 483,-1054.11"/>
<polygon fill="black" stroke="black" points="486.5,-1054.1 483,-1044.1 479.5,-1054.1 486.5,-1054.1"/>
</g>
<!-- 2429 -->
<g id="node45" class="node">
<title>2429</title>
<ellipse fill="none" stroke="black" cx="483" cy="-954" rx="34.39" ry="18"/>
<text text-anchor="middle" x="483" y="-950.3" font-family="Times,serif" font-size="14.00">2429</text>
</g>
<!-- 1619&#45;&gt;2429 -->
<g id="edge43" class="edge">
<title>1619&#45;&gt;2429</title>
<path fill="none" stroke="black" d="M483,-1007.7C483,-999.98 483,-990.71 483,-982.11"/>
<polygon fill="black" stroke="black" points="486.5,-982.1 483,-972.1 479.5,-982.1 486.5,-982.1"/>
</g>
<!-- 911 -->
<g id="node46" class="node">
<title>911</title>
<ellipse fill="none" stroke="black" cx="483" cy="-882" rx="28.7" ry="18"/>
<text text-anchor="middle" x="483" y="-878.3" font-family="Times,serif" font-size="14.00">911</text>
</g>
<!-- 2429&#45;&gt;911 -->
<g id="edge44" class="edge">
<title>2429&#45;&gt;911</title>
<path fill="none" stroke="black" d="M483,-935.7C483,-927.98 483,-918.71 483,-910.11"/>
<polygon fill="black" stroke="black" points="486.5,-910.1 483,-900.1 479.5,-910.1 486.5,-910.1"/>
</g>
<!-- 1367 -->
<g id="node47" class="node">
<title>1367</title>
<ellipse fill="none" stroke="black" cx="483" cy="-810" rx="34.39" ry="18"/>
<text text-anchor="middle" x="483" y="-806.3" font-family="Times,serif" font-size="14.00">1367</text>
</g>
<!-- 911&#45;&gt;1367 -->
<g id="edge45" class="edge">
<title>911&#45;&gt;1367</title>
<path fill="none" stroke="black" d="M483,-863.7C483,-855.98 483,-846.71 483,-838.11"/>
<polygon fill="black" stroke="black" points="486.5,-838.1 483,-828.1 479.5,-838.1 486.5,-838.1"/>
</g>
<!-- 2051 -->
<g id="node48" class="node">
<title>2051</title>
<ellipse fill="none" stroke="black" cx="483" cy="-738" rx="34.39" ry="18"/>
<text text-anchor="middle" x="483" y="-734.3" font-family="Times,serif" font-size="14.00">2051</text>
</g>
<!-- 1367&#45;&gt;2051 -->
<g id="edge46" class="edge">
<title>1367&#45;&gt;2051</title>
<path fill="none" stroke="black" d="M483,-791.7C483,-783.98 483,-774.71 483,-766.11"/>
<polygon fill="black" stroke="black" points="486.5,-766.1 483,-756.1 479.5,-766.1 486.5,-766.1"/>
</g>
<!-- 3077 -->
<g id="node49" class="node">
<title>3077</title>
<ellipse fill="none" stroke="black" cx="483" cy="-666" rx="34.39" ry="18"/>
<text text-anchor="middle" x="483" y="-662.3" font-family="Times,serif" font-size="14.00">3077</text>
</g>
<!-- 2051&#45;&gt;3077 -->
<g id="edge47" class="edge">
<title>2051&#45;&gt;3077</title>
<path fill="none" stroke="black" d="M483,-719.7C483,-711.98 483,-702.71 483,-694.11"/>
<polygon fill="black" stroke="black" points="486.5,-694.1 483,-684.1 479.5,-694.1 486.5,-694.1"/>
</g>
<!-- 577 -->
<g id="node50" class="node">
<title>577</title>
<ellipse fill="none" stroke="black" cx="483" cy="-594" rx="28.7" ry="18"/>
<text text-anchor="middle" x="483" y="-590.3" font-family="Times,serif" font-size="14.00">577</text>
</g>
<!-- 3077&#45;&gt;577 -->
<g id="edge48" class="edge">
<title>3077&#45;&gt;577</title>
<path fill="none" stroke="black" d="M483,-647.7C483,-639.98 483,-630.71 483,-622.11"/>
<polygon fill="black" stroke="black" points="486.5,-622.1 483,-612.1 479.5,-622.1 486.5,-622.1"/>
</g>
<!-- 433 -->
<g id="node51" class="node">
<title>433</title>
<ellipse fill="none" stroke="black" cx="483" cy="-522" rx="28.7" ry="18"/>
<text text-anchor="middle" x="483" y="-518.3" font-family="Times,serif" font-size="14.00">433</text>
</g>
<!-- 577&#45;&gt;433 -->
<g id="edge49" class="edge">
<title>577&#45;&gt;433</title>
<path fill="none" stroke="black" d="M483,-575.7C483,-567.98 483,-558.71 483,-550.11"/>
<polygon fill="black" stroke="black" points="486.5,-550.1 483,-540.1 479.5,-550.1 486.5,-550.1"/>
</g>
<!-- 325 -->
<g id="node52" class="node">
<title>325</title>
<ellipse fill="none" stroke="black" cx="483" cy="-450" rx="28.7" ry="18"/>
<text text-anchor="middle" x="483" y="-446.3" font-family="Times,serif" font-size="14.00">325</text>
</g>
<!-- 433&#45;&gt;325 -->
<g id="edge50" class="edge">
<title>433&#45;&gt;325</title>
<path fill="none" stroke="black" d="M483,-503.7C483,-495.98 483,-486.71 483,-478.11"/>
<polygon fill="black" stroke="black" points="486.5,-478.1 483,-468.1 479.5,-478.1 486.5,-478.1"/>
</g>
<!-- 61 -->
<g id="node53" class="node">
<title>61</title>
<ellipse fill="none" stroke="black" cx="486" cy="-378" rx="27" ry="18"/>
<text text-anchor="middle" x="486" y="-374.3" font-family="Times,serif" font-size="14.00">61</text>
</g>
<!-- 325&#45;&gt;61 -->
<g id="edge51" class="edge">
<title>325&#45;&gt;61</title>
<path fill="none" stroke="black" d="M483.74,-431.7C484.07,-423.98 484.47,-414.71 484.84,-406.11"/>
<polygon fill="black" stroke="black" points="488.34,-406.25 485.27,-396.1 481.34,-405.95 488.34,-406.25"/>
</g>
<!-- 61&#45;&gt;23 -->
<g id="edge52" class="edge">
<title>61&#45;&gt;23</title>
<path fill="none" stroke="black" d="M473.85,-361.81C466.44,-352.55 456.82,-340.52 448.48,-330.09"/>
<polygon fill="black" stroke="black" points="451.11,-327.78 442.13,-322.16 445.64,-332.15 451.11,-327.78"/>
</g>
<!-- 33 -->
<g id="node54" class="node">
<title>33</title>
<ellipse fill="none" stroke="black" cx="247" cy="-594" rx="27" ry="18"/>
<text text-anchor="middle" x="247" y="-590.3" font-family="Times,serif" font-size="14.00">33</text>
</g>
<!-- 33&#45;&gt;25 -->
<g id="edge53" class="edge">
<title>33&#45;&gt;25</title>
<path fill="none" stroke="black" d="M247,-575.7C247,-567.98 247,-558.71 247,-550.11"/>
<polygon fill="black" stroke="black" points="250.5,-550.1 247,-540.1 243.5,-550.1 250.5,-550.1"/>
</g>
<!-- 37 -->
<g id="node55" class="node">
<title>37</title>
<ellipse fill="none" stroke="black" cx="101" cy="-450" rx="27" ry="18"/>
<text text-anchor="middle" x="101" y="-446.3" font-family="Times,serif" font-size="14.00">37</text>
</g>
<!-- 37&#45;&gt;7 -->
<g id="edge54" class="edge">
<title>37&#45;&gt;7</title>
<path fill="none" stroke="black" d="M109.58,-432.76C114.06,-424.28 119.65,-413.71 124.68,-404.2"/>
<polygon fill="black" stroke="black" points="127.89,-405.62 129.46,-395.15 121.7,-402.35 127.89,-405.62"/>
</g>
<!-- 39 -->
<g id="node56" class="node">
<title>39</title>
<ellipse fill="none" stroke="black" cx="320" cy="-810" rx="27" ry="18"/>
<text text-anchor="middle" x="320" y="-806.3" font-family="Times,serif" font-size="14.00">39</text>
</g>
<!-- 59 -->
<g id="node57" class="node">
<title>59</title>
<ellipse fill="none" stroke="black" cx="320" cy="-738" rx="27" ry="18"/>
<text text-anchor="middle" x="320" y="-734.3" font-family="Times,serif" font-size="14.00">59</text>
</g>
<!-- 39&#45;&gt;59 -->
<g id="edge55" class="edge">
<title>39&#45;&gt;59</title>
<path fill="none" stroke="black" d="M320,-791.7C320,-783.98 320,-774.71 320,-766.11"/>
<polygon fill="black" stroke="black" points="323.5,-766.1 320,-756.1 316.5,-766.1 323.5,-766.1"/>
</g>
<!-- 89 -->
<g id="node58" class="node">
<title>89</title>
<ellipse fill="none" stroke="black" cx="320" cy="-666" rx="27" ry="18"/>
<text text-anchor="middle" x="320" y="-662.3" font-family="Times,serif" font-size="14.00">89</text>
</g>
<!-- 59&#45;&gt;89 -->
<g id="edge56" class="edge">
<title>59&#45;&gt;89</title>
<path fill="none" stroke="black" d="M320,-719.7C320,-711.98 320,-702.71 320,-694.11"/>
<polygon fill="black" stroke="black" points="323.5,-694.1 320,-684.1 316.5,-694.1 323.5,-694.1"/>
</g>
<!-- 67 -->
<g id="node59" class="node">
<title>67</title>
<ellipse fill="none" stroke="black" cx="320" cy="-594" rx="27" ry="18"/>
<text text-anchor="middle" x="320" y="-590.3" font-family="Times,serif" font-size="14.00">67</text>
</g>
<!-- 89&#45;&gt;67 -->
<g id="edge57" class="edge">
<title>89&#45;&gt;67</title>
<path fill="none" stroke="black" d="M320,-647.7C320,-639.98 320,-630.71 320,-622.11"/>
<polygon fill="black" stroke="black" points="323.5,-622.1 320,-612.1 316.5,-622.1 323.5,-622.1"/>
</g>
<!-- 101 -->
<g id="node60" class="node">
<title>101</title>
<ellipse fill="none" stroke="black" cx="321" cy="-522" rx="28.7" ry="18"/>
<text text-anchor="middle" x="321" y="-518.3" font-family="Times,serif" font-size="14.00">101</text>
</g>
<!-- 67&#45;&gt;101 -->
<g id="edge58" class="edge">
<title>67&#45;&gt;101</title>
<path fill="none" stroke="black" d="M320.25,-575.7C320.36,-567.98 320.49,-558.71 320.61,-550.11"/>
<polygon fill="black" stroke="black" points="324.11,-550.15 320.76,-540.1 317.11,-550.05 324.11,-550.15"/>
</g>
<!-- 101&#45;&gt;19 -->
<g id="edge59" class="edge">
<title>101&#45;&gt;19</title>
<path fill="none" stroke="black" d="M313.65,-504.41C309.99,-496.13 305.47,-485.92 301.36,-476.66"/>
<polygon fill="black" stroke="black" points="304.54,-475.2 297.29,-467.47 298.14,-478.03 304.54,-475.2"/>
</g>
<!-- 43 -->
<g id="node61" class="node">
<title>43</title>
<ellipse fill="none" stroke="black" cx="27" cy="-666" rx="27" ry="18"/>
<text text-anchor="middle" x="27" y="-662.3" font-family="Times,serif" font-size="14.00">43</text>
</g>
<!-- 65 -->
<g id="node62" class="node">
<title>65</title>
<ellipse fill="none" stroke="black" cx="27" cy="-594" rx="27" ry="18"/>
<text text-anchor="middle" x="27" y="-590.3" font-family="Times,serif" font-size="14.00">65</text>
</g>
<!-- 43&#45;&gt;65 -->
<g id="edge60" class="edge">
<title>43&#45;&gt;65</title>
<path fill="none" stroke="black" d="M27,-647.7C27,-639.98 27,-630.71 27,-622.11"/>
<polygon fill="black" stroke="black" points="30.5,-622.1 27,-612.1 23.5,-622.1 30.5,-622.1"/>
</g>
<!-- 49 -->
<g id="node63" class="node">
<title>49</title>
<ellipse fill="none" stroke="black" cx="27" cy="-522" rx="27" ry="18"/>
<text text-anchor="middle" x="27" y="-518.3" font-family="Times,serif" font-size="14.00">49</text>
</g>
<!-- 65&#45;&gt;49 -->
<g id="edge61" class="edge">
<title>65&#45;&gt;49</title>
<path fill="none" stroke="black" d="M27,-575.7C27,-567.98 27,-558.71 27,-550.11"/>
<polygon fill="black" stroke="black" points="30.5,-550.1 27,-540.1 23.5,-550.1 30.5,-550.1"/>
</g>
<!-- 49&#45;&gt;37 -->
<g id="edge62" class="edge">
<title>49&#45;&gt;37</title>
<path fill="none" stroke="black" d="M41.98,-506.83C52.51,-496.87 66.78,-483.37 78.66,-472.14"/>
<polygon fill="black" stroke="black" points="81.19,-474.56 86.05,-465.14 76.38,-469.47 81.19,-474.56"/>
</g>
<!-- 45 -->
<g id="node64" class="node">
<title>45</title>
<ellipse fill="none" stroke="black" cx="358" cy="-306" rx="27" ry="18"/>
<text text-anchor="middle" x="358" y="-302.3" font-family="Times,serif" font-size="14.00">45</text>
</g>
<!-- 45&#45;&gt;17 -->
<g id="edge63" class="edge">
<title>45&#45;&gt;17</title>
<path fill="none" stroke="black" d="M349.65,-288.76C345.29,-280.28 339.85,-269.71 334.96,-260.2"/>
<polygon fill="black" stroke="black" points="337.99,-258.44 330.3,-251.15 331.77,-261.64 337.99,-258.44"/>
</g>
<!-- 51 -->
<g id="node65" class="node">
<title>51</title>
<ellipse fill="none" stroke="black" cx="395" cy="-522" rx="27" ry="18"/>
<text text-anchor="middle" x="395" y="-518.3" font-family="Times,serif" font-size="14.00">51</text>
</g>
<!-- 77 -->
<g id="node66" class="node">
<title>77</title>
<ellipse fill="none" stroke="black" cx="379" cy="-450" rx="27" ry="18"/>
<text text-anchor="middle" x="379" y="-446.3" font-family="Times,serif" font-size="14.00">77</text>
</g>
<!-- 51&#45;&gt;77 -->
<g id="edge64" class="edge">
<title>51&#45;&gt;77</title>
<path fill="none" stroke="black" d="M391.13,-504.05C389.35,-496.26 387.19,-486.82 385.19,-478.08"/>
<polygon fill="black" stroke="black" points="388.59,-477.24 382.95,-468.28 381.76,-478.8 388.59,-477.24"/>
</g>
<!-- 77&#45;&gt;29 -->
<g id="edge65" class="edge">
<title>77&#45;&gt;29</title>
<path fill="none" stroke="black" d="M362.26,-435.83C348.92,-425.34 330.04,-410.49 314.92,-398.6"/>
<polygon fill="black" stroke="black" points="316.99,-395.78 306.97,-392.35 312.66,-401.28 316.99,-395.78"/>
</g>
<!-- 55 -->
<g id="node67" class="node">
<title>55</title>
<ellipse fill="none" stroke="black" cx="447" cy="-2970" rx="27" ry="18"/>
<text text-anchor="middle" x="447" y="-2966.3" font-family="Times,serif" font-size="14.00">55</text>
</g>
<!-- 83 -->
<g id="node68" class="node">
<title>83</title>
<ellipse fill="none" stroke="black" cx="447" cy="-2898" rx="27" ry="18"/>
<text text-anchor="middle" x="447" y="-2894.3" font-family="Times,serif" font-size="14.00">83</text>
</g>
<!-- 55&#45;&gt;83 -->
<g id="edge66" class="edge">
<title>55&#45;&gt;83</title>
<path fill="none" stroke="black" d="M447,-2951.7C447,-2943.98 447,-2934.71 447,-2926.11"/>
<polygon fill="black" stroke="black" points="450.5,-2926.1 447,-2916.1 443.5,-2926.1 450.5,-2926.1"/>
</g>
<!-- 125 -->
<g id="node69" class="node">
<title>125</title>
<ellipse fill="none" stroke="black" cx="447" cy="-2826" rx="28.7" ry="18"/>
<text text-anchor="middle" x="447" y="-2822.3" font-family="Times,serif" font-size="14.00">125</text>
</g>
<!-- 83&#45;&gt;125 -->
<g id="edge67" class="edge">
<title>83&#45;&gt;125</title>
<path fill="none" stroke="black" d="M447,-2879.7C447,-2871.98 447,-2862.71 447,-2854.11"/>
<polygon fill="black" stroke="black" points="450.5,-2854.1 447,-2844.1 443.5,-2854.1 450.5,-2854.1"/>
</g>
<!-- 125&#45;&gt;47 -->
<g id="edge68" class="edge">
<title>125&#45;&gt;47</title>
<path fill="none" stroke="black" d="M446.75,-2807.7C446.64,-2799.98 446.51,-2790.71 446.39,-2782.11"/>
<polygon fill="black" stroke="black" points="449.89,-2782.05 446.24,-2772.1 442.89,-2782.15 449.89,-2782.05"/>
</g>
<!-- 57 -->
<g id="node70" class="node">
<title>57</title>
<ellipse fill="none" stroke="black" cx="27" cy="-738" rx="27" ry="18"/>
<text text-anchor="middle" x="27" y="-734.3" font-family="Times,serif" font-size="14.00">57</text>
</g>
<!-- 57&#45;&gt;43 -->
<g id="edge69" class="edge">
<title>57&#45;&gt;43</title>
<path fill="none" stroke="black" d="M27,-719.7C27,-711.98 27,-702.71 27,-694.11"/>
<polygon fill="black" stroke="black" points="30.5,-694.1 27,-684.1 23.5,-694.1 30.5,-694.1"/>
</g>
<!-- 63 -->
<g id="node71" class="node">
<title>63</title>
<ellipse fill="none" stroke="black" cx="521" cy="-2826" rx="27" ry="18"/>
<text text-anchor="middle" x="521" y="-2822.3" font-family="Times,serif" font-size="14.00">63</text>
</g>
<!-- 95 -->
<g id="node72" class="node">
<title>95</title>
<ellipse fill="none" stroke="black" cx="521" cy="-2754" rx="27" ry="18"/>
<text text-anchor="middle" x="521" y="-2750.3" font-family="Times,serif" font-size="14.00">95</text>
</g>
<!-- 63&#45;&gt;95 -->
<g id="edge70" class="edge">
<title>63&#45;&gt;95</title>
<path fill="none" stroke="black" d="M521,-2807.7C521,-2799.98 521,-2790.71 521,-2782.11"/>
<polygon fill="black" stroke="black" points="524.5,-2782.1 521,-2772.1 517.5,-2782.1 524.5,-2782.1"/>
</g>
<!-- 143 -->
<g id="node73" class="node">
<title>143</title>
<ellipse fill="none" stroke="black" cx="521" cy="-2682" rx="28.7" ry="18"/>
<text text-anchor="middle" x="521" y="-2678.3" font-family="Times,serif" font-size="14.00">143</text>
</g>
<!-- 95&#45;&gt;143 -->
<g id="edge71" class="edge">
<title>95&#45;&gt;143</title>
<path fill="none" stroke="black" d="M521,-2735.7C521,-2727.98 521,-2718.71 521,-2710.11"/>
<polygon fill="black" stroke="black" points="524.5,-2710.1 521,-2700.1 517.5,-2710.1 524.5,-2710.1"/>
</g>
<!-- 215 -->
<g id="node74" class="node">
<title>215</title>
<ellipse fill="none" stroke="black" cx="521" cy="-2610" rx="28.7" ry="18"/>
<text text-anchor="middle" x="521" y="-2606.3" font-family="Times,serif" font-size="14.00">215</text>
</g>
<!-- 143&#45;&gt;215 -->
<g id="edge72" class="edge">
<title>143&#45;&gt;215</title>
<path fill="none" stroke="black" d="M521,-2663.7C521,-2655.98 521,-2646.71 521,-2638.11"/>
<polygon fill="black" stroke="black" points="524.5,-2638.1 521,-2628.1 517.5,-2638.1 524.5,-2638.1"/>
</g>
<!-- 323 -->
<g id="node75" class="node">
<title>323</title>
<ellipse fill="none" stroke="black" cx="521" cy="-2538" rx="28.7" ry="18"/>
<text text-anchor="middle" x="521" y="-2534.3" font-family="Times,serif" font-size="14.00">323</text>
</g>
<!-- 215&#45;&gt;323 -->
<g id="edge73" class="edge">
<title>215&#45;&gt;323</title>
<path fill="none" stroke="black" d="M521,-2591.7C521,-2583.98 521,-2574.71 521,-2566.11"/>
<polygon fill="black" stroke="black" points="524.5,-2566.1 521,-2556.1 517.5,-2566.1 524.5,-2566.1"/>
</g>
<!-- 485 -->
<g id="node76" class="node">
<title>485</title>
<ellipse fill="none" stroke="black" cx="521" cy="-2466" rx="28.7" ry="18"/>
<text text-anchor="middle" x="521" y="-2462.3" font-family="Times,serif" font-size="14.00">485</text>
</g>
<!-- 323&#45;&gt;485 -->
<g id="edge74" class="edge">
<title>323&#45;&gt;485</title>
<path fill="none" stroke="black" d="M521,-2519.7C521,-2511.98 521,-2502.71 521,-2494.11"/>
<polygon fill="black" stroke="black" points="524.5,-2494.1 521,-2484.1 517.5,-2494.1 524.5,-2494.1"/>
</g>
<!-- 485&#45;&gt;91 -->
<g id="edge75" class="edge">
<title>485&#45;&gt;91</title>
<path fill="none" stroke="black" d="M512.19,-2448.76C507.58,-2440.28 501.84,-2429.71 496.68,-2420.2"/>
<polygon fill="black" stroke="black" points="499.61,-2418.27 491.77,-2411.15 493.46,-2421.61 499.61,-2418.27"/>
</g>
<!-- 69 -->
<g id="node77" class="node">
<title>69</title>
<ellipse fill="none" stroke="black" cx="394" cy="-234" rx="27" ry="18"/>
<text text-anchor="middle" x="394" y="-230.3" font-family="Times,serif" font-size="14.00">69</text>
</g>
<!-- 69&#45;&gt;13 -->
<g id="edge76" class="edge">
<title>69&#45;&gt;13</title>
<path fill="none" stroke="black" d="M394,-215.7C394,-207.98 394,-198.71 394,-190.11"/>
<polygon fill="black" stroke="black" points="397.5,-190.1 394,-180.1 390.5,-190.1 397.5,-190.1"/>
</g>
<!-- 73 -->
<g id="node78" class="node">
<title>73</title>
<ellipse fill="none" stroke="black" cx="447" cy="-3042" rx="27" ry="18"/>
<text text-anchor="middle" x="447" y="-3038.3" font-family="Times,serif" font-size="14.00">73</text>
</g>
<!-- 73&#45;&gt;55 -->
<g id="edge77" class="edge">
<title>73&#45;&gt;55</title>
<path fill="none" stroke="black" d="M447,-3023.7C447,-3015.98 447,-3006.71 447,-2998.11"/>
<polygon fill="black" stroke="black" points="450.5,-2998.1 447,-2988.1 443.5,-2998.1 450.5,-2998.1"/>
</g>
<!-- 75 -->
<g id="node79" class="node">
<title>75</title>
<ellipse fill="none" stroke="black" cx="248" cy="-234" rx="27" ry="18"/>
<text text-anchor="middle" x="248" y="-230.3" font-family="Times,serif" font-size="14.00">75</text>
</g>
<!-- 113 -->
<g id="node80" class="node">
<title>113</title>
<ellipse fill="none" stroke="black" cx="248" cy="-162" rx="28.7" ry="18"/>
<text text-anchor="middle" x="248" y="-158.3" font-family="Times,serif" font-size="14.00">113</text>
</g>
<!-- 75&#45;&gt;113 -->
<g id="edge78" class="edge">
<title>75&#45;&gt;113</title>
<path fill="none" stroke="black" d="M248,-215.7C248,-207.98 248,-198.71 248,-190.11"/>
<polygon fill="black" stroke="black" points="251.5,-190.1 248,-180.1 244.5,-190.1 251.5,-190.1"/>
</g>
<!-- 85 -->
<g id="node81" class="node">
<title>85</title>
<ellipse fill="none" stroke="black" cx="249" cy="-90" rx="27" ry="18"/>
<text text-anchor="middle" x="249" y="-86.3" font-family="Times,serif" font-size="14.00">85</text>
</g>
<!-- 113&#45;&gt;85 -->
<g id="edge79" class="edge">
<title>113&#45;&gt;85</title>
<path fill="none" stroke="black" d="M248.25,-143.7C248.36,-135.98 248.49,-126.71 248.61,-118.11"/>
<polygon fill="black" stroke="black" points="252.11,-118.15 248.76,-108.1 245.11,-118.05 252.11,-118.15"/>
</g>
<!-- 85&#45;&gt;1 -->
<g id="edge80" class="edge">
<title>85&#45;&gt;1</title>
<path fill="none" stroke="black" d="M263.57,-74.83C273.75,-64.94 287.52,-51.55 299.03,-40.36"/>
<polygon fill="black" stroke="black" points="301.47,-42.87 306.2,-33.38 296.59,-37.85 301.47,-42.87"/>
</g>
<!-- 79 -->
<g id="node82" class="node">
<title>79</title>
<ellipse fill="none" stroke="black" cx="394" cy="-810" rx="27" ry="18"/>
<text text-anchor="middle" x="394" y="-806.3" font-family="Times,serif" font-size="14.00">79</text>
</g>
<!-- 119 -->
<g id="node83" class="node">
<title>119</title>
<ellipse fill="none" stroke="black" cx="394" cy="-738" rx="28.7" ry="18"/>
<text text-anchor="middle" x="394" y="-734.3" font-family="Times,serif" font-size="14.00">119</text>
</g>
<!-- 79&#45;&gt;119 -->
<g id="edge81" class="edge">
<title>79&#45;&gt;119</title>
<path fill="none" stroke="black" d="M394,-791.7C394,-783.98 394,-774.71 394,-766.11"/>
<polygon fill="black" stroke="black" points="397.5,-766.1 394,-756.1 390.5,-766.1 397.5,-766.1"/>
</g>
<!-- 179 -->
<g id="node84" class="node">
<title>179</title>
<ellipse fill="none" stroke="black" cx="394" cy="-666" rx="28.7" ry="18"/>
<text text-anchor="middle" x="394" y="-662.3" font-family="Times,serif" font-size="14.00">179</text>
</g>
<!-- 119&#45;&gt;179 -->
<g id="edge82" class="edge">
<title>119&#45;&gt;179</title>
<path fill="none" stroke="black" d="M394,-719.7C394,-711.98 394,-702.71 394,-694.11"/>
<polygon fill="black" stroke="black" points="397.5,-694.1 394,-684.1 390.5,-694.1 397.5,-694.1"/>
</g>
<!-- 269 -->
<g id="node85" class="node">
<title>269</title>
<ellipse fill="none" stroke="black" cx="394" cy="-594" rx="28.7" ry="18"/>
<text text-anchor="middle" x="394" y="-590.3" font-family="Times,serif" font-size="14.00">269</text>
</g>
<!-- 179&#45;&gt;269 -->
<g id="edge83" class="edge">
<title>179&#45;&gt;269</title>
<path fill="none" stroke="black" d="M394,-647.7C394,-639.98 394,-630.71 394,-622.11"/>
<polygon fill="black" stroke="black" points="397.5,-622.1 394,-612.1 390.5,-622.1 397.5,-622.1"/>
</g>
<!-- 269&#45;&gt;101 -->
<g id="edge84" class="edge">
<title>269&#45;&gt;101</title>
<path fill="none" stroke="black" d="M378.87,-578.5C368.69,-568.73 355.09,-555.69 343.63,-544.7"/>
<polygon fill="black" stroke="black" points="345.75,-541.88 336.11,-537.49 340.9,-546.93 345.75,-541.88"/>
</g>
<!-- 81 -->
<g id="node86" class="node">
<title>81</title>
<ellipse fill="none" stroke="black" cx="557" cy="-450" rx="27" ry="18"/>
<text text-anchor="middle" x="557" y="-446.3" font-family="Times,serif" font-size="14.00">81</text>
</g>
<!-- 81&#45;&gt;61 -->
<g id="edge85" class="edge">
<title>81&#45;&gt;61</title>
<path fill="none" stroke="black" d="M542.29,-434.5C532.39,-424.73 519.16,-411.69 508.01,-400.7"/>
<polygon fill="black" stroke="black" points="510.27,-398.01 500.69,-393.49 505.36,-403 510.27,-398.01"/>
</g>
<!-- 87 -->
<g id="node87" class="node">
<title>87</title>
<ellipse fill="none" stroke="black" cx="101" cy="-666" rx="27" ry="18"/>
<text text-anchor="middle" x="101" y="-662.3" font-family="Times,serif" font-size="14.00">87</text>
</g>
<!-- 131 -->
<g id="node88" class="node">
<title>131</title>
<ellipse fill="none" stroke="black" cx="101" cy="-594" rx="28.7" ry="18"/>
<text text-anchor="middle" x="101" y="-590.3" font-family="Times,serif" font-size="14.00">131</text>
</g>
<!-- 87&#45;&gt;131 -->
<g id="edge86" class="edge">
<title>87&#45;&gt;131</title>
<path fill="none" stroke="black" d="M101,-647.7C101,-639.98 101,-630.71 101,-622.11"/>
<polygon fill="black" stroke="black" points="104.5,-622.1 101,-612.1 97.5,-622.1 104.5,-622.1"/>
</g>
<!-- 197 -->
<g id="node89" class="node">
<title>197</title>
<ellipse fill="none" stroke="black" cx="101" cy="-522" rx="28.7" ry="18"/>
<text text-anchor="middle" x="101" y="-518.3" font-family="Times,serif" font-size="14.00">197</text>
</g>
<!-- 131&#45;&gt;197 -->
<g id="edge87" class="edge">
<title>131&#45;&gt;197</title>
<path fill="none" stroke="black" d="M101,-575.7C101,-567.98 101,-558.71 101,-550.11"/>
<polygon fill="black" stroke="black" points="104.5,-550.1 101,-540.1 97.5,-550.1 104.5,-550.1"/>
</g>
<!-- 197&#45;&gt;37 -->
<g id="edge88" class="edge">
<title>197&#45;&gt;37</title>
<path fill="none" stroke="black" d="M101,-503.7C101,-495.98 101,-486.71 101,-478.11"/>
<polygon fill="black" stroke="black" points="104.5,-478.1 101,-468.1 97.5,-478.1 104.5,-478.1"/>
</g>
<!-- 93 -->
<g id="node90" class="node">
<title>93</title>
<ellipse fill="none" stroke="black" cx="502" cy="-306" rx="27" ry="18"/>
<text text-anchor="middle" x="502" y="-302.3" font-family="Times,serif" font-size="14.00">93</text>
</g>
<!-- 93&#45;&gt;35 -->
<g id="edge89" class="edge">
<title>93&#45;&gt;35</title>
<path fill="none" stroke="black" d="M493.65,-288.76C489.29,-280.28 483.85,-269.71 478.96,-260.2"/>
<polygon fill="black" stroke="black" points="481.99,-258.44 474.3,-251.15 475.77,-261.64 481.99,-258.44"/>
</g>
<!-- 97 -->
<g id="node91" class="node">
<title>97</title>
<ellipse fill="none" stroke="black" cx="447" cy="-3114" rx="27" ry="18"/>
<text text-anchor="middle" x="447" y="-3110.3" font-family="Times,serif" font-size="14.00">97</text>
</g>
<!-- 97&#45;&gt;73 -->
<g id="edge90" class="edge">
<title>97&#45;&gt;73</title>
<path fill="none" stroke="black" d="M447,-3095.7C447,-3087.98 447,-3078.71 447,-3070.11"/>
<polygon fill="black" stroke="black" points="450.5,-3070.1 447,-3060.1 443.5,-3070.1 450.5,-3070.1"/>
</g>
<!-- 99 -->
<g id="node92" class="node">
<title>99</title>
<ellipse fill="none" stroke="black" cx="175" cy="-522" rx="27" ry="18"/>
<text text-anchor="middle" x="175" y="-518.3" font-family="Times,serif" font-size="14.00">99</text>
</g>
<!-- 149 -->
<g id="node93" class="node">
<title>149</title>
<ellipse fill="none" stroke="black" cx="175" cy="-450" rx="28.7" ry="18"/>
<text text-anchor="middle" x="175" y="-446.3" font-family="Times,serif" font-size="14.00">149</text>
</g>
<!-- 99&#45;&gt;149 -->
<g id="edge91" class="edge">
<title>99&#45;&gt;149</title>
<path fill="none" stroke="black" d="M175,-503.7C175,-495.98 175,-486.71 175,-478.11"/>
<polygon fill="black" stroke="black" points="178.5,-478.1 175,-468.1 171.5,-478.1 178.5,-478.1"/>
</g>
<!-- 149&#45;&gt;7 -->
<g id="edge92" class="edge">
<title>149&#45;&gt;7</title>
<path fill="none" stroke="black" d="M166.42,-432.76C161.94,-424.28 156.35,-413.71 151.32,-404.2"/>
<polygon fill="black" stroke="black" points="154.3,-402.35 146.54,-395.15 148.11,-405.62 154.3,-402.35"/>
</g>
</g>
</svg>
