<?xml version="1.0" encoding="UTF-8" standalone="no"?>
<!DOCTYPE svg PUBLIC "-//W3C//DTD SVG 1.1//EN"
 "http://www.w3.org/Graphics/SVG/1.1/DTD/svg11.dtd">
<!-- Generated by graphviz version 2.43.0 (0)
 -->
<!-- Pages: 1 -->
<svg width="478pt" height="660pt"
 viewBox="0.00 0.00 477.92 660.03" xmlns="http://www.w3.org/2000/svg" xmlns:xlink="http://www.w3.org/1999/xlink">
<g id="graph0" class="graph" transform="scale(1 1) rotate(0) translate(4 656.03)">
<polygon fill="white" stroke="transparent" points="-4,4 -4,-656.03 473.92,-656.03 473.92,4 -4,4"/>
<!-- 3 -->
<g id="node1" class="node">
<title>3</title>
<ellipse fill="none" stroke="black" cx="79.65" cy="-325.77" rx="27" ry="18"/>
<text text-anchor="middle" x="79.65" y="-322.07" font-family="Times,serif" font-size="14.00">3</text>
</g>
<!-- 5 -->
<g id="node2" class="node">
<title>5</title>
<ellipse fill="none" stroke="black" cx="154.95" cy="-288.09" rx="27" ry="18"/>
<text text-anchor="middle" x="154.95" y="-284.39" font-family="Times,serif" font-size="14.00">5</text>
</g>
<!-- 3&#45;&gt;5 -->
<g id="edge1" class="edge">
<title>3&#45;&gt;5</title>
<path fill="none" stroke="black" d="M101.43,-314.87C108.53,-311.32 116.56,-307.3 124.19,-303.48"/>
<polygon fill="black" stroke="black" points="125.84,-306.57 133.22,-298.96 122.71,-300.31 125.84,-306.57"/>
</g>
<!-- 1 -->
<g id="node3" class="node">
<title>1</title>
<ellipse fill="none" stroke="black" cx="222.47" cy="-238.45" rx="27" ry="18"/>
<text text-anchor="middle" x="222.47" y="-234.75" font-family="Times,serif" font-size="14.00">1</text>
</g>
<!-- 5&#45;&gt;1 -->
<g id="edge2" class="edge">
<title>5&#45;&gt;1</title>
<path fill="none" stroke="black" d="M173.4,-274.53C180.25,-269.49 188.16,-263.68 195.61,-258.2"/>
<polygon fill="black" stroke="black" points="198.06,-260.74 204.05,-252 193.91,-255.1 198.06,-260.74"/>
</g>
<!-- 7 -->
<g id="node4" class="node">
<title>7</title>
<ellipse fill="none" stroke="black" cx="255.69" cy="-560.93" rx="27" ry="18"/>
<text text-anchor="middle" x="255.69" y="-557.23" font-family="Times,serif" font-size="14.00">7</text>
</g>
<!-- 11 -->
<g id="node5" class="node">
<title>11</title>
<ellipse fill="none" stroke="black" cx="286.24" cy="-485.5" rx="27" ry="18"/>
<text text-anchor="middle" x="286.24" y="-481.8" font-family="Times,serif" font-size="14.00">11</text>
</g>
<!-- 7&#45;&gt;11 -->
<g id="edge3" class="edge">
<title>7&#45;&gt;11</title>
<path fill="none" stroke="black" d="M262.78,-543.43C266.52,-534.2 271.19,-522.67 275.37,-512.33"/>
<polygon fill="black" stroke="black" points="278.68,-513.48 279.19,-502.9 272.2,-510.85 278.68,-513.48"/>
</g>
<!-- 17 -->
<g id="node6" class="node">
<title>17</title>
<ellipse fill="none" stroke="black" cx="241.42" cy="-419.22" rx="27" ry="18"/>
<text text-anchor="middle" x="241.42" y="-415.52" font-family="Times,serif" font-size="14.00">17</text>
</g>
<!-- 11&#45;&gt;17 -->
<g id="edge4" class="edge">
<title>11&#45;&gt;17</title>
<path fill="none" stroke="black" d="M274.93,-468.78C269.9,-461.34 263.88,-452.43 258.33,-444.23"/>
<polygon fill="black" stroke="black" points="261.07,-442.03 252.57,-435.71 255.27,-445.96 261.07,-442.03"/>
</g>
<!-- 13 -->
<g id="node7" class="node">
<title>13</title>
<ellipse fill="none" stroke="black" cx="197.78" cy="-355.62" rx="27" ry="18"/>
<text text-anchor="middle" x="197.78" y="-351.92" font-family="Times,serif" font-size="14.00">13</text>
</g>
<!-- 17&#45;&gt;13 -->
<g id="edge5" class="edge">
<title>17&#45;&gt;13</title>
<path fill="none" stroke="black" d="M230.18,-402.84C225.53,-396.07 220.04,-388.07 214.91,-380.59"/>
<polygon fill="black" stroke="black" points="217.67,-378.43 209.13,-372.16 211.9,-382.39 217.67,-378.43"/>
</g>
<!-- 13&#45;&gt;5 -->
<g id="edge6" class="edge">
<title>13&#45;&gt;5</title>
<path fill="none" stroke="black" d="M187.19,-338.93C182.34,-331.27 176.48,-322.03 171.09,-313.54"/>
<polygon fill="black" stroke="black" points="174.03,-311.63 165.71,-305.06 168.11,-315.38 174.03,-311.63"/>
</g>
<!-- 9 -->
<g id="node8" class="node">
<title>9</title>
<ellipse fill="none" stroke="black" cx="235.57" cy="-634.03" rx="27" ry="18"/>
<text text-anchor="middle" x="235.57" y="-630.33" font-family="Times,serif" font-size="14.00">9</text>
</g>
<!-- 9&#45;&gt;7 -->
<g id="edge7" class="edge">
<title>9&#45;&gt;7</title>
<path fill="none" stroke="black" d="M240.54,-615.96C242.81,-607.73 245.54,-597.8 248.06,-588.65"/>
<polygon fill="black" stroke="black" points="251.49,-589.36 250.77,-578.79 244.74,-587.5 251.49,-589.36"/>
</g>
<!-- 15 -->
<g id="node9" class="node">
<title>15</title>
<ellipse fill="none" stroke="black" cx="27" cy="-18" rx="27" ry="18"/>
<text text-anchor="middle" x="27" y="-14.3" font-family="Times,serif" font-size="14.00">15</text>
</g>
<!-- 23 -->
<g id="node10" class="node">
<title>23</title>
<ellipse fill="none" stroke="black" cx="50.24" cy="-86.8" rx="27" ry="18"/>
<text text-anchor="middle" x="50.24" y="-83.1" font-family="Times,serif" font-size="14.00">23</text>
</g>
<!-- 15&#45;&gt;23 -->
<g id="edge8" class="edge">
<title>15&#45;&gt;23</title>
<path fill="none" stroke="black" d="M32.98,-35.72C35.4,-42.88 38.26,-51.32 40.94,-59.26"/>
<polygon fill="black" stroke="black" points="37.68,-60.55 44.19,-68.9 44.31,-58.31 37.68,-60.55"/>
</g>
<!-- 35 -->
<g id="node11" class="node">
<title>35</title>
<ellipse fill="none" stroke="black" cx="77.19" cy="-154.95" rx="27" ry="18"/>
<text text-anchor="middle" x="77.19" y="-151.25" font-family="Times,serif" font-size="14.00">35</text>
</g>
<!-- 23&#45;&gt;35 -->
<g id="edge9" class="edge">
<title>23&#45;&gt;35</title>
<path fill="none" stroke="black" d="M57.18,-104.35C59.99,-111.45 63.29,-119.81 66.4,-127.67"/>
<polygon fill="black" stroke="black" points="63.25,-129.21 70.18,-137.22 69.76,-126.63 63.25,-129.21"/>
</g>
<!-- 53 -->
<g id="node12" class="node">
<title>53</title>
<ellipse fill="none" stroke="black" cx="114.14" cy="-220.28" rx="27" ry="18"/>
<text text-anchor="middle" x="114.14" y="-216.58" font-family="Times,serif" font-size="14.00">53</text>
</g>
<!-- 35&#45;&gt;53 -->
<g id="edge10" class="edge">
<title>35&#45;&gt;53</title>
<path fill="none" stroke="black" d="M86.9,-172.11C90.69,-178.81 95.12,-186.64 99.29,-194.02"/>
<polygon fill="black" stroke="black" points="96.4,-196.02 104.37,-203 102.49,-192.57 96.4,-196.02"/>
</g>
<!-- 53&#45;&gt;5 -->
<g id="edge11" class="edge">
<title>53&#45;&gt;5</title>
<path fill="none" stroke="black" d="M124.23,-237.04C128.8,-244.65 134.32,-253.81 139.41,-262.26"/>
<polygon fill="black" stroke="black" points="136.54,-264.29 144.7,-271.05 142.54,-260.68 136.54,-264.29"/>
</g>
<!-- 19 -->
<g id="node13" class="node">
<title>19</title>
<ellipse fill="none" stroke="black" cx="442.92" cy="-496.74" rx="27" ry="18"/>
<text text-anchor="middle" x="442.92" y="-493.04" font-family="Times,serif" font-size="14.00">19</text>
</g>
<!-- 29 -->
<g id="node14" class="node">
<title>29</title>
<ellipse fill="none" stroke="black" cx="367.66" cy="-486.81" rx="27" ry="18"/>
<text text-anchor="middle" x="367.66" y="-483.11" font-family="Times,serif" font-size="14.00">29</text>
</g>
<!-- 19&#45;&gt;29 -->
<g id="edge12" class="edge">
<title>19&#45;&gt;29</title>
<path fill="none" stroke="black" d="M416.18,-493.21C412.41,-492.72 408.47,-492.2 404.56,-491.68"/>
<polygon fill="black" stroke="black" points="404.69,-488.17 394.32,-490.33 403.78,-495.11 404.69,-488.17"/>
</g>
<!-- 29&#45;&gt;11 -->
<g id="edge13" class="edge">
<title>29&#45;&gt;11</title>
<path fill="none" stroke="black" d="M340.55,-486.38C335.06,-486.29 329.19,-486.19 323.42,-486.1"/>
<polygon fill="black" stroke="black" points="323.29,-482.6 313.23,-485.94 323.18,-489.6 323.29,-482.6"/>
</g>
</g>
</svg>
